<svg xmlns="http://www.w3.org/2000/svg" xmlns:xlink="http://www.w3.org/1999/xlink" width="374.754" height="402.935" viewBox="0 0 374.754 402.935">
  <defs>
    <linearGradient id="linear-gradient" x1="0.093" y1="0.911" x2="0.682" y2="0.377" gradientUnits="objectBoundingBox">
      <stop offset="0" stop-color="#179fa6"/>
      <stop offset="1" stop-color="#f46c96"/>
    </linearGradient>
    <filter id="Union_1" x="0" y="0" width="374.754" height="402.935" filterUnits="userSpaceOnUse">
      <feOffset input="SourceAlpha"/>
      <feGaussianBlur stdDeviation="49.5" result="blur"/>
      <feFlood flood-color="#fff" flood-opacity="0.259"/>
      <feComposite operator="in" in2="blur"/>
      <feComposite in="SourceGraphic"/>
    </filter>
    <linearGradient id="linear-gradient-2" x1="0.5" y1="0.368" x2="0.5" y2="1.251" gradientUnits="objectBoundingBox">
      <stop offset="0"/>
      <stop offset="1" stop-color="#f46c96"/>
    </linearGradient>
    <filter id="Path_23" x="185.578" y="164.402" width="15.821" height="25.742" filterUnits="userSpaceOnUse">
      <feOffset input="SourceAlpha"/>
      <feGaussianBlur stdDeviation="0.5" result="blur-2"/>
      <feFlood flood-opacity="0.859"/>
      <feComposite operator="in" in2="blur-2"/>
      <feComposite in="SourceGraphic"/>
    </filter>
    <filter id="Path_23-2" x="185.53" y="202.679" width="15.939" height="30.091" filterUnits="userSpaceOnUse">
      <feOffset input="SourceAlpha"/>
      <feGaussianBlur stdDeviation="0.5" result="blur-3"/>
      <feFlood flood-opacity="0.859"/>
      <feComposite operator="in" in2="blur-3"/>
      <feComposite in="SourceGraphic"/>
    </filter>
  </defs>
  <g id="Group_117" data-name="Group 117" transform="translate(148.868 148.85)">
    <g id="Group_95" data-name="Group 95" transform="translate(0 0)">
      <g transform="matrix(1, 0, 0, 1, -148.87, -148.85)" filter="url(#Union_1)">
        <path id="Union_1-2" data-name="Union 1" d="M29.809,104.692a36.723,36.723,0,0,1-11.189-4.024c-.557-.239-.858-.384-.858-.384v-.1q-.211-.123-.42-.247a3.464,3.464,0,0,0-2.544-.492L2.066,101.91a1.581,1.581,0,0,1-.638.016,1.79,1.79,0,0,1-1.018-.563,1.658,1.658,0,0,1-.293-1.693S4.755,87.655,4.906,87.3s-.028-.964-.388-1.774A30.284,30.284,0,0,1,2.235,67.642a30.888,30.888,0,0,1,15.049-21.2l.981-.585L18.687,0h23.4Q54.45,0,60.816,1.923A18.566,18.566,0,0,1,71.094,9.707q3.913,5.861,3.913,18.887,0,8.808-2.763,12.281t-10.9,5.334c6.045,1.366,10.9,7.986,10.9,7.986s6.1,10.4,4.526,20.791S70.5,91.582,65.945,95.748s-11.359,8.48-23.793,9.37a38.8,38.8,0,0,1-4.231.064q-.96.053-1.927.053A35.627,35.627,0,0,1,29.809,104.692Zm8.7-22.341c.954-.032,2.063-.032,3.2-.031,3.254,0,6.738,0,7.491-.763q1.521-1.551,1.522-7.634V64.551q0-6.455-1.367-7.821c-.911-.91-6.954-.927-10.847-1.051Zm6.251-42.875q3.85,0,4.907-1.893t1.056-10.83q0-4.718-.87-6.61a4.167,4.167,0,0,0-2.267-2.39,29.384,29.384,0,0,0-5.317-.068c-1.386.041-2.763.083-3.76.068V39.475c.373-.014,1.123-.019,1.98-.019C42.2,39.457,44.347,39.475,44.761,39.475Z" transform="translate(148.87 148.85)" stroke="rgba(255,255,255,0.54)" stroke-width="0.7" fill="url(#linear-gradient)"/>
      </g>
      <g transform="matrix(1, 0, 0, 1, -148.87, -148.85)" filter="url(#Path_23)">
        <path id="Path_23-3" data-name="Path 23" d="M0-.691a73.4,73.4,0,0,1,8.943,0c2.767.344,3.171,4.756,3.171,4.756S12.639,14.127,11.837,18s-5.961,3.307-5.961,3.307H0Z" transform="translate(187.33 167.01)" stroke="#fff" stroke-width="0.5" fill="url(#linear-gradient-2)"/>
      </g>
      <path id="Path_20" data-name="Path 20" d="M1.515.246A.378.378,0,0,0,.8.271a7.179,7.179,0,0,1,.418,2.857C.994,4.138-.639,5.416.276,5.633A23.206,23.206,0,0,0,2.542,4.426c.705-.477.645-.457.555-.7Z" transform="matrix(-0.407, 0.914, -0.914, -0.407, 45.228, 36.5)" fill="rgba(255,255,255,0.86)"/>
      <g transform="matrix(1, 0, 0, 1, -148.87, -148.85)" filter="url(#Path_23-2)">
        <path id="Path_23-4" data-name="Path 23" d="M0,.175s6.867,0,9.773.406S12.342,5.92,12.342,5.92s.289,12.389-.282,16.829-3.165,3.994-3.165,3.994H0Z" transform="translate(187.28 204.25)" stroke="#fff" stroke-width="0.5" fill="url(#linear-gradient-2)"/>
      </g>
      <path id="Path_22" data-name="Path 22" d="M1.515.246A.378.378,0,0,0,.8.271a7.179,7.179,0,0,1,.418,2.857C.994,4.138-.639,5.416.276,5.633A23.206,23.206,0,0,0,2.542,4.426c.705-.477.645-.457.555-.7Z" transform="matrix(-0.407, 0.914, -0.914, -0.407, 45.228, 79.232)" fill="rgba(255,255,255,0.86)"/>
    </g>
  </g>
</svg>
